# xmcd
#
# Track frame offsets: 
#        150
#        13326
#        32532
#        46019
#        63252
#        74268
#        92576
#        104543
#        121375
#        135459
#        149761
#        171767
#        190037
#
# Disc length: 2711 seconds
#
# Revision: 0
# Processed by: cddbd v1.5.2PL0 Copyright (c) Steve Scherf et al.
# Submitted via: ExactAudioCopy v0.95b4
#
DISCID=b20a950d
DTITLE=Bjørns Orkester - Ta Vare På Livet
DYEAR=2009
DGENRE=Dansband
TTITLE0=Ta Vare På Livet
TTITLE1=I e Så Glad i De
TTITLE2=Ka Ska I Leva Tå
TTITLE3=Kun Noen Timer
TTITLE4=Mari Og Ola
TTITLE5=Huldra i Fra Jendemsfjell
TTITLE6=Ungkar Og Suring
TTITLE7=Kloke Ord Fra En Gammel Lasaron
TTITLE8=Han Gamlefar
TTITLE9=Liafestivalen
TTITLE10=Mitt Første Onkelbarn
TTITLE11=Din Melodi
TTITLE12=Kreisi Daisy
EXTD=
EXTT0=
EXTT1=
EXTT2=
EXTT3=
EXTT4=
EXTT5=
EXTT6=
EXTT7=
EXTT8=
EXTT9=
EXTT10=
EXTT11=
EXTT12=
PLAYORDER=
